<svg xmlns="http://www.w3.org/2000/svg" width="83.764" height="70.545" viewBox="0 0 83.764 70.545">
  <g id="Group_3802" data-name="Group 3802" transform="translate(-42.298 -23.394)">
    <path id="Path_13538" data-name="Path 13538" d="M61.225,59.039h1.826v1.629h-5.3c-.81,0-1.2.374-1.2,1.162v1.121H55.01V61.467a2.174,2.174,0,0,1,1.962-2.407l-1.215-3.206a4.635,4.635,0,0,1,6.641,0Zm-3.672-2.365.933,2.365h1.173l.945-2.355a2.369,2.369,0,0,0-1.527-.6,2.471,2.471,0,0,0-1.524.592" fill="#3b3c3e"/>
    <path id="Path_13539" data-name="Path 13539" d="M62.845,60.668V59.039h.965V54.712h1.629v4.327h1.173v1.629Zm.913-7.8a.877.877,0,0,1,1.743,0,.875.875,0,0,1-1.743,0" fill="#3b3c3e"/>
    <path id="Path_13540" data-name="Path 13540" d="M74.591,59.039h1.183v1.629H66.4V59.039h1.048V54.131h1.629v.581H71.3a2.974,2.974,0,0,1,3.289,3.268Zm-1.629,0V57.69c0-.892-.592-1.348-1.515-1.348H69.081v2.7Z" fill="#3b3c3e"/>
    <path id="Path_13541" data-name="Path 13541" d="M79.25,55.429a2.96,2.96,0,0,1,3.009,3.247v.011a2.9,2.9,0,0,1-3.009,3.134h-.011a2.9,2.9,0,0,1-2.427-1.153H75.567V59.039h.664c-.011-.114-.011-.228-.011-.352v-.011a2.968,2.968,0,0,1,3.019-3.247Zm1.38,3.206a1.409,1.409,0,0,0-1.38-1.588h-.011a1.416,1.416,0,0,0-1.389,1.588v.01A1.4,1.4,0,0,0,79.239,60.2h.011a1.393,1.393,0,0,0,1.38-1.556Z" fill="#3b3c3e"/>
    <path id="Path_13542" data-name="Path 13542" d="M88.194,61.965c-2.137,0-3.33-1.162-3.33-3.206v-3.33H86.5v3.133c0,1.266.777,1.774,1.95,1.774h.758V52.253H90.84v9.712Z" fill="#3b3c3e"/>
    <path id="Path_13543" data-name="Path 13543" d="M97.379,54.712v5.375c0,2.21-.882,2.864-2.729,2.864a6.814,6.814,0,0,1-1.411-.135l-.353-1.733a6.272,6.272,0,0,0,1.691.239c.6,0,1.048-.136,1.152-.654h-.342a2.936,2.936,0,0,1-3.238-2.957V57.7c0-1.8,1.371-2.988,3.455-2.988h1.775ZM95.75,59.039V56.331h-.509A1.4,1.4,0,0,0,93.675,57.7v.011a1.391,1.391,0,0,0,1.566,1.328Z" fill="#3b3c3e"/>
    <path id="Path_13544" data-name="Path 13544" d="M98.728,52.782v-.757A1.079,1.079,0,0,1,99.942,50.9h.363v.7h-.4a.269.269,0,0,0-.279.29v.1h.954v.788Zm.115.706h1.629v7.18H98.843Z" fill="#3b3c3e"/>
    <path id="Path_13545" data-name="Path 13545" d="M52.727,68.894h1.629v6.475H52.364a2.936,2.936,0,0,1-3.238-2.957V72.4c0-1.795,1.37-2.988,3.455-2.988h.146Zm0,2.137h-.509a1.4,1.4,0,0,0-1.566,1.37v.011a1.391,1.391,0,0,0,1.566,1.328h.509Z" fill="#3b3c3e"/>
    <path id="Path_13546" data-name="Path 13546" d="M57.449,73.74h1.183v1.629H55.82V66.954h1.629Z" fill="#3b3c3e"/>
    <path id="Path_13547" data-name="Path 13547" d="M58.424,75.369V73.74h1.618V69.413h1.63V73.74h1.816v1.629Zm.561,1.784a.864.864,0,1,1,.861.789.792.792,0,0,1-.861-.789m2.116,0a.8.8,0,0,1,.861-.778.787.787,0,1,1-.861.778" fill="#3b3c3e"/>
    <path id="Path_13548" data-name="Path 13548" d="M66.963,70.129a2.96,2.96,0,0,1,3.009,3.248v.01a2.9,2.9,0,0,1-3.009,3.134h-.011a2.9,2.9,0,0,1-2.427-1.152H63.28V73.74h.664c-.011-.114-.011-.228-.011-.353v-.01a2.969,2.969,0,0,1,3.019-3.248Zm1.38,3.206a1.409,1.409,0,0,0-1.38-1.587h-.011a1.416,1.416,0,0,0-1.39,1.587v.011a1.4,1.4,0,0,0,1.39,1.556h.011a1.393,1.393,0,0,0,1.38-1.556Z" fill="#3b3c3e"/>
    <path id="Path_13549" data-name="Path 13549" d="M75.908,75.369c-2.282,0-3.33-1.152-3.33-3.268V70.243h1.629v1.692c0,1.265.778,1.806,2.054,1.806h2.491V69.413h1.629v5.956Zm-1.162-7.481a.864.864,0,1,1,.861.789.793.793,0,0,1-.861-.789m2.117,0a.8.8,0,0,1,.861-.778.787.787,0,1,1-.861.778" fill="#3b3c3e"/>
    <path id="Path_13550" data-name="Path 13550" d="M83.473,73.74h1.183v1.629H81.844V66.954h1.629Z" fill="#3b3c3e"/>
    <path id="Path_13551" data-name="Path 13551" d="M84.438,75.369V73.74H85.4V69.413h1.629v5.956Zm.924-7.8a.877.877,0,0,1,1.743,0,.875.875,0,0,1-1.743,0" fill="#3b3c3e"/>
    <rect id="Rectangle_1041" data-name="Rectangle 1041" width="1.629" height="8.415" transform="translate(88.507 66.954)" fill="#3b3c3e"/>
    <path id="Path_13552" data-name="Path 13552" d="M95.25,73.74v1.629H94.119c-.124,1.774-.9,2.283-2.334,2.283a3.957,3.957,0,0,1-.872-.094l-.166-1.411c.353.021.592.03.872.03.519,0,.892-.268.892-1.057V69.413H94.14V73.74Zm-2.78-6.174a.877.877,0,0,1,1.743,0,.875.875,0,0,1-1.743,0" fill="#3b3c3e"/>
    <path id="Path_13553" data-name="Path 13553" d="M95.044,75.37V73.741H99.08a5.2,5.2,0,0,0,.186-1.319,1.5,1.5,0,0,0-1.6-1.639,2.692,2.692,0,0,0-1.577.5L95.5,69.8a4.957,4.957,0,0,1,2.283-.643c1.982,0,3.02,1.276,3.02,3.351a10.8,10.8,0,0,1-.489,2.865Zm1.868-8.063a.877.877,0,0,1,1.742,0,.874.874,0,0,1-1.742,0" fill="#3b3c3e"/>
    <path id="Path_13554" data-name="Path 13554" d="M48.711,88.44v1.629H45.536A2.935,2.935,0,0,1,42.3,87.112V87.1c0-1.794,1.37-2.988,3.456-2.988H45.9V83.6h1.629V88.44ZM43.616,82a.864.864,0,1,1,.861.788A.793.793,0,0,1,43.616,82M45.9,85.732H45.39A1.4,1.4,0,0,0,43.824,87.1v.011A1.391,1.391,0,0,0,45.39,88.44H45.9ZM45.733,82a.8.8,0,0,1,.861-.778.787.787,0,1,1-.861.778" fill="#3b3c3e"/>
    <path id="Path_13555" data-name="Path 13555" d="M55.248,88.441h1.184V90.07H48.5V88.441h5.1V87.362a1.079,1.079,0,0,0-1.183-1.193H49.52A2.967,2.967,0,0,1,49,84.55l1.525-2.9h1.982l-1.67,2.885h1.389c2,0,3.02.985,3.02,3.1Z" fill="#3b3c3e"/>
    <path id="Path_13556" data-name="Path 13556" d="M58.9,88.44h1.245V90.07H56.224V88.44h1.048V81.655H58.9Z" fill="#3b3c3e"/>
    <path id="Path_13557" data-name="Path 13557" d="M67.493,88.44v1.629H66.041a2.867,2.867,0,0,1-2.418,1.153h-.011a2.9,2.9,0,0,1-2.427-1.153H59.94V88.44H60.6c-.011-.114-.011-.228-.011-.352v-.011a2.968,2.968,0,0,1,3.019-3.247h.011a2.96,2.96,0,0,1,3.009,3.247v.011c0,.124,0,.238-.011.352Zm-2.49-.4a1.409,1.409,0,0,0-1.38-1.588h-.011a1.416,1.416,0,0,0-1.389,1.588v.01A1.4,1.4,0,0,0,63.612,89.6h.011A1.393,1.393,0,0,0,65,88.046Z" fill="#3b3c3e"/>
    <path id="Path_13558" data-name="Path 13558" d="M74.839,88.44v1.629H73.386a2.864,2.864,0,0,1-2.417,1.153h-.011a2.9,2.9,0,0,1-2.427-1.153H67.286V88.44h.664c-.011-.114-.011-.228-.011-.352v-.011a2.968,2.968,0,0,1,3.019-3.247h.011a2.96,2.96,0,0,1,3.009,3.247v.011c0,.124,0,.238-.01.352Zm-2.49-.4a1.409,1.409,0,0,0-1.38-1.588h-.011a1.416,1.416,0,0,0-1.39,1.588v.01a1.4,1.4,0,0,0,1.39,1.556h.011a1.393,1.393,0,0,0,1.38-1.556Z" fill="#3b3c3e"/>
    <path id="Path_13559" data-name="Path 13559" d="M75.68,81.654h1.629v8.415H74.632V88.44H75.68Z" fill="#3b3c3e"/>
    <rect id="Rectangle_1042" data-name="Rectangle 1042" width="1.629" height="8.415" transform="translate(78.928 81.654)" fill="#3b3c3e"/>
    <path id="Path_13560" data-name="Path 13560" d="M93.591,88.44h1.171v1.629h-2.8v-4.42h-.643a1.044,1.044,0,0,0-1.141,1.193v4.524H86.928c-2.241,0-3.33-1.1-3.33-3.269V85.981h1.629v1.95c0,1.308.841,1.806,2.055,1.806h1.266V87.143c0-2.044,1.037-3.03,3.071-3.03h1.972Zm-5.925,4.711a.866.866,0,1,1-.862-.778.787.787,0,0,1,.862.778m2.116,0a.864.864,0,0,1-1.722,0,.8.8,0,0,1,.861-.778.787.787,0,0,1,.861.778" fill="#3b3c3e"/>
    <path id="Path_13561" data-name="Path 13561" d="M100.636,84.114V90.07h-6.08V88.441h1.131a3.059,3.059,0,0,1-.29-1.328V87.1c0-1.795,1.38-2.988,3.465-2.988Zm-1.629,4.327V85.733H98.5A1.394,1.394,0,0,0,96.932,87.1v.011A1.387,1.387,0,0,0,98.5,88.441Zm-.985-6.174a.877.877,0,0,1,1.743,0,.875.875,0,0,1-1.743,0" fill="#3b3c3e"/>
    <path id="Path_13562" data-name="Path 13562" d="M108.155,93.893V43.581L95.8,46.4v-16.1l30.26-6.9v70.5Z" fill="#008ad8"/>
  </g>
</svg>
